<svg width="21" height="16" viewBox="0 0 21 16" fill="none" xmlns="http://www.w3.org/2000/svg">
<path d="M20.1422 12.6734L18.1677 10.6989C17.8672 10.3984 17.3736 10.3984 17.0516 10.6989C16.7512 10.9993 16.7512 11.493 17.0516 11.8149L17.6955 12.4588H3.53052V9.8833L6.2562 8.35949L7.93025 10.2482C8.08048 10.4199 8.2951 10.5057 8.50972 10.5057C8.53119 10.5057 8.55265 10.5057 8.57411 10.5057C8.81019 10.4842 9.04628 10.3555 9.17505 10.1623L11.8793 6.04158L13.8967 7.99463C14.0684 8.16633 14.3045 8.23072 14.5406 8.20926C14.7767 8.16633 14.9913 8.03756 15.0986 7.82294L18.275 2.43595C18.4896 2.07109 18.3823 1.57746 17.996 1.36284C17.6311 1.14822 17.1375 1.277 16.9229 1.64185L14.2616 6.17036L12.2656 4.26023C12.0939 4.08853 11.8578 4.02414 11.6432 4.04561C11.4071 4.06707 11.214 4.19584 11.0852 4.389L8.42388 8.44534L7.00738 6.85714C6.77129 6.57814 6.36351 6.51375 6.04158 6.68545L3.53052 8.08048V2.67203L4.17438 3.3159C4.32461 3.46613 4.51777 3.55198 4.73239 3.55198C4.94702 3.55198 5.14017 3.46613 5.29041 3.3159C5.59088 3.01543 5.59088 2.5218 5.29041 2.19987L3.3159 0.225352C3.01543 -0.0751174 2.50034 -0.0751174 2.19987 0.225352L0.225352 2.19987C-0.0751174 2.50034 -0.0751174 2.99396 0.225352 3.3159C0.525822 3.63783 1.01945 3.61636 1.34138 3.3159L1.98524 2.67203V13.2314C1.98524 13.6606 2.32864 14.004 2.75788 14.004H17.717L17.0731 14.6479C16.7726 14.9484 16.7726 15.442 17.0731 15.7639C17.2233 15.9142 17.4165 16 17.6311 16C17.8457 16 18.0389 15.9142 18.1891 15.7639L20.1636 13.7894C20.3139 13.6392 20.3997 13.446 20.3997 13.2314C20.3997 13.0168 20.2924 12.8236 20.1422 12.6734Z" fill="#FF6584"/>
</svg>
