<svg width="36" height="26" viewBox="0 0 36 26" fill="none" xmlns="http://www.w3.org/2000/svg">
<path d="M34.2 10.5763C33.56 10.5763 33 11.0169 32.68 11.7331H25.76L23.4 5.28814L18.12 19.8305L12.72 0L8.44 11.7881H3.36C3.04 11.072 2.48 10.5763 1.8 10.5763C0.8 10.5212 0 11.678 0 13C0 14.3771 0.8 15.4788 1.8 15.4788C2.48 15.4788 3.04 14.9831 3.36 14.2119H9.56L12.48 6.16949L17.88 26L23.4 10.7966L24.64 14.2119H32.6C32.92 14.9831 33.48 15.5339 34.2 15.5339C35.2 15.5339 36 14.4322 36 13.0551C36 11.7331 35.2 10.5763 34.2 10.5763Z" fill="white"/>
</svg>
