<svg width="30" height="30" viewBox="0 0 30 30" fill="none" xmlns="http://www.w3.org/2000/svg">
<path d="M15 30C23.2709 30 30 23.2711 30 15.0004C30 6.72962 23.2709 0 15 0C6.72832 0 0 6.72926 0 15C0 23.2707 6.72832 30 15 30ZM15 28.2612C11.835 28.2612 8.92614 27.1449 6.6438 25.2877C7.12335 24.0946 7.93765 22.922 8.62959 22.5693C9.69819 22.0251 11.3628 21.6844 13.177 21.5474C10.4592 20.0933 8.47305 15.7345 8.47305 12.7581C8.47305 9.14015 11.4062 6.20747 15.0239 6.20747C18.6423 6.20747 21.5755 9.14015 21.5755 12.7581C21.5755 15.7342 19.5911 20.0908 16.8744 21.5455C18.696 21.6811 20.3698 22.0225 21.4421 22.5693C22.1252 22.918 22.9292 24.067 23.4106 25.2451C21.1205 27.129 18.1903 28.2612 15 28.2612Z" fill="#FF6584"/>
</svg>
