<svg width="38" height="20" viewBox="0 0 38 20" fill="none" xmlns="http://www.w3.org/2000/svg">
<path d="M37.3448 2.91135H19.4717C18.5414 0.919864 14.0469 0 9.82759 0C5.09462 0 0 1.1537 0 3.68564V16.0744C0 18.6063 5.09462 19.76 9.82759 19.76C14.5606 19.76 19.6552 18.6063 19.6552 16.0744V13.7515H37.3448C37.7065 13.7515 38 13.4046 38 12.9772V3.68564C38 3.25823 37.7065 2.91135 37.3448 2.91135ZM9.82759 1.54859C15.3599 1.54859 18.3448 3.06466 18.3448 3.68564C18.3448 3.82966 17.7539 4.68913 14.9445 5.31011C13.4861 5.64616 11.7171 5.8227 9.82759 5.8227C4.29531 5.8227 1.31034 4.30663 1.31034 3.68564C1.31034 3.06466 4.29531 1.54859 9.82759 1.54859ZM18.3448 16.0744C18.3448 16.6938 15.3599 18.2114 9.82759 18.2114C4.29531 18.2114 1.31034 16.6953 1.31034 16.0744V5.65235C1.31297 5.6539 1.31559 5.65545 1.3169 5.65545C1.52131 5.78708 1.75193 5.90787 1.99434 6.02401C2.06117 6.05653 2.13062 6.08596 2.20007 6.11693C2.37697 6.19436 2.56041 6.26869 2.75303 6.33992C2.67572 6.46691 2.62069 6.61403 2.62069 6.78282V11.4286C2.62069 11.856 2.91421 12.2029 3.27586 12.2029C3.63752 12.2029 3.93103 11.856 3.93103 11.4286V6.78282C3.93103 6.75495 3.92055 6.73017 3.91793 6.7023C3.96641 6.71468 4.01883 6.72552 4.06862 6.73791C4.33593 6.8045 4.61241 6.8649 4.89545 6.92065C4.9911 6.93923 5.08676 6.95781 5.18372 6.97485C5.20338 6.97794 5.22303 6.98259 5.24269 6.98569V9.87845C5.24269 10.3059 5.53621 10.6527 5.89786 10.6527C6.25952 10.6527 6.55303 10.3059 6.55303 9.87845V7.17771C6.79938 7.20714 7.04703 7.23346 7.29731 7.25669C7.38641 7.26443 7.47552 7.27063 7.56593 7.27682C7.66552 7.28456 7.76379 7.29386 7.86469 7.30005V11.427C7.86469 11.8545 8.15821 12.2013 8.51986 12.2013C8.88152 12.2013 9.17503 11.8545 9.17503 11.427V7.3589C9.39124 7.36664 9.61007 7.37129 9.82759 7.37129C10.0503 7.37129 10.2639 7.36045 10.4828 7.3558V9.88C10.4828 10.3074 10.7763 10.6543 11.1379 10.6543C11.4996 10.6543 11.7931 10.3074 11.7931 9.88V7.2985C12.2426 7.26908 12.6789 7.22882 13.1034 7.17771V11.4286C13.1034 11.856 13.397 12.2029 13.7586 12.2029C14.1203 12.2029 14.4138 11.856 14.4138 11.4286V6.98104C14.6759 6.93303 14.9432 6.88812 15.1895 6.83083C15.3782 6.78901 15.5472 6.74101 15.7241 6.6961V9.87845C15.7241 10.3059 16.0177 10.6527 16.3793 10.6527C16.741 10.6527 17.0345 10.3059 17.0345 9.87845V6.30121C17.0463 6.29656 17.0568 6.29192 17.0686 6.28727C17.176 6.24701 17.2717 6.2021 17.3726 6.16029C17.5246 6.0968 17.6779 6.0333 17.8154 5.96517C17.915 5.91561 18.0028 5.86451 18.0946 5.81186C18.1771 5.7654 18.2701 5.72204 18.3461 5.67403V12.9756V16.0744H18.3448ZM19.6552 4.45994H20.9655V8.33141C20.9655 8.75882 21.259 9.10571 21.6207 9.10571C21.9823 9.10571 22.2759 8.75882 22.2759 8.33141V4.45994H23.5862V6.78282C23.5862 7.21023 23.8797 7.55712 24.2414 7.55712C24.603 7.55712 24.8966 7.21023 24.8966 6.78282V4.45994H26.2069V8.33141C26.2069 8.75882 26.5004 9.10571 26.8621 9.10571C27.2237 9.10571 27.5172 8.75882 27.5172 8.33141V4.45994H28.8276V6.78282C28.8276 7.21023 29.1211 7.55712 29.4828 7.55712C29.8444 7.55712 30.1379 7.21023 30.1379 6.78282V4.45994H31.4483V12.2029H19.6552V4.45994ZM36.6897 12.2029H32.7586V4.45994H36.6897V12.2029Z" fill="white"/>
<path d="M9.82773 4.9757C10.8393 4.9757 11.5207 4.45692 11.5207 3.68573C11.5207 2.91298 10.8406 2.39575 9.82773 2.39575C8.81483 2.39575 8.13477 2.91453 8.13477 3.68573C8.13477 4.45692 8.81614 4.9757 9.82773 4.9757Z" fill="white"/>
<path d="M34.7243 10.6543C35.0859 10.6543 35.3794 10.3074 35.3794 9.88002V6.78284C35.3794 6.35543 35.0859 6.00854 34.7243 6.00854C34.3626 6.00854 34.0691 6.35543 34.0691 6.78284V9.88002C34.0691 10.3074 34.3626 10.6543 34.7243 10.6543Z" fill="white"/>
</svg>
