<svg width="30" height="30" viewBox="0 0 30 30" fill="none" xmlns="http://www.w3.org/2000/svg">
<path d="M15 0C6.72932 0 0 6.69173 0 15C0 23.2707 6.69173 30 15 30C23.2707 30 30 23.3083 30 15C29.9624 6.69173 23.2707 0 15 0ZM6.35338 17.1805C3.53383 17.1805 3.57143 12.8195 6.35338 12.8195C9.17293 12.8571 9.13534 17.1805 6.35338 17.1805ZM15 17.1805C12.1805 17.1805 12.218 12.8195 15 12.8195C17.8195 12.8571 17.782 17.1805 15 17.1805ZM23.7218 17.1805C20.9023 17.1805 20.9398 12.8195 23.7218 12.8195C26.5038 12.8571 26.5038 17.1805 23.7218 17.1805Z" fill="#FF6584"/>
</svg>
