<svg width="32" height="21" viewBox="0 0 32 21" fill="none" xmlns="http://www.w3.org/2000/svg">
<path d="M24.2766 5.75109C24.2766 4.27209 23.0736 3.06909 21.5946 3.06909C20.1156 3.06909 18.9126 4.27209 18.9126 5.75109C18.9126 7.23009 20.1156 8.43409 21.5946 8.43409C23.0736 8.43409 24.2766 7.23009 24.2766 5.75109ZM19.9136 5.75109C19.9136 4.82409 20.6676 4.06909 21.5956 4.06909C22.5236 4.06909 23.2776 4.82309 23.2776 5.75109C23.2776 6.67909 22.5236 7.43409 21.5956 7.43409C20.6676 7.43409 19.9136 6.67809 19.9136 5.75109Z" fill="white"/>
<path d="M21.5946 15.866C22.8266 15.866 27.2746 8.406 27.2746 5.678C27.2746 2.547 24.7266 0 21.5946 0C18.4626 0 15.9146 2.547 15.9146 5.678C15.9156 8.406 20.3626 15.866 21.5946 15.866ZM21.5946 1.001C24.1746 1.001 26.2746 3.1 26.2746 5.679C26.2746 8.102 22.6116 13.78 21.5946 14.773C20.5776 13.78 16.9146 8.102 16.9146 5.679C16.9156 3.099 19.0146 1.001 21.5946 1.001Z" fill="white"/>
<path d="M31.5257 11.5061C31.4487 11.3181 31.2657 11.1951 31.0637 11.1951H26.3527C26.1807 11.5311 26.0027 11.8651 25.8197 12.1951H29.8437L22.3197 19.6121L12.9187 13.8521L15.3727 12.1951H17.3707C17.1867 11.8651 17.0097 11.5311 16.8377 11.1951H9.31367C9.18167 11.1951 9.05567 11.2471 8.96167 11.3391L0.148673 20.0271C0.00367326 20.1691 -0.0393268 20.3851 0.0376732 20.5721C0.113673 20.7601 0.297673 20.8831 0.500673 20.8831H22.2507C22.3817 20.8831 22.5077 20.8311 22.6017 20.7391L31.4147 12.0511C31.5587 11.9101 31.6027 11.6941 31.5257 11.5061ZM9.51867 12.1961H13.5847L6.53567 16.9581L5.97467 15.6881L9.51867 12.1961ZM1.71967 19.8831L5.21367 16.4391L6.73367 19.8831H1.71967ZM7.82667 19.8831L6.94667 17.8871L12.0087 14.4681L20.8467 19.8831H7.82667Z" fill="white"/>
</svg>
