<svg width="38" height="30" viewBox="0 0 38 30" fill="none" xmlns="http://www.w3.org/2000/svg">
<path d="M12.2344 3.99417C12.5563 3.99417 12.8174 3.73516 12.8174 3.41575V0.578422C12.8174 0.259018 12.5563 0 12.2344 0C11.9124 0 11.6514 0.259018 11.6514 0.578422V3.41575C11.6514 3.73516 11.9124 3.99417 12.2344 3.99417Z" fill="white"/>
<path d="M6.71517 5.77355C6.83387 5.77355 6.95374 5.73769 7.05734 5.66313C7.31783 5.47526 7.37561 5.11351 7.1863 4.85507L5.50529 2.55972C5.31598 2.30186 4.95218 2.24425 4.69082 2.43178C4.43032 2.61959 4.37255 2.98139 4.56185 3.23983L6.24286 5.53518C6.35702 5.69078 6.53466 5.77355 6.71517 5.77355Z" fill="white"/>
<path d="M3.48319 9.30339L0.763413 8.42673C0.456512 8.32898 0.128274 8.49481 0.028636 8.79814C-0.0707051 9.10204 0.0966743 9.42821 0.402991 9.52706L3.12283 10.4038C3.18258 10.423 3.24351 10.4323 3.30298 10.4323C3.54895 10.4323 3.77755 10.2766 3.85754 10.0324C3.95689 9.72847 3.78951 9.40224 3.48319 9.30339Z" fill="white"/>
<path d="M3.12283 15.062L0.402991 15.9386C0.0966743 16.0375 -0.0707051 16.3637 0.028636 16.6676C0.108626 16.9119 0.337227 17.0675 0.583202 17.0675C0.642728 17.0675 0.703595 17.0582 0.763413 17.039L3.48319 16.1623C3.78951 16.0634 3.95689 15.7373 3.85754 15.4334C3.7582 15.1303 3.43054 14.9642 3.12283 15.062Z" fill="white"/>
<path d="M17.7539 5.77342C17.9344 5.77342 18.112 5.69065 18.2262 5.53506L19.9069 3.23971C20.0962 2.98127 20.0384 2.61947 19.7779 2.43165C19.5169 2.24442 19.1528 2.30174 18.9635 2.5596L17.2828 4.85495C17.0935 5.11339 17.1513 5.47513 17.4118 5.663C17.5154 5.73756 17.6352 5.77342 17.7539 5.77342Z" fill="white"/>
<path d="M31.7427 18.2559C31.7464 18.1485 31.7481 18.0409 31.7481 17.9339C31.7481 12.769 27.5935 8.5673 22.487 8.5673C21.1533 8.5673 19.8641 8.8597 18.6913 9.39358C17.4732 7.08469 15.0383 5.50317 12.2344 5.50317C8.21649 5.50317 4.94751 8.74633 4.94751 12.7329C4.94751 14.4795 5.57542 16.0833 6.61867 17.3343C5.74181 18.6295 5.22881 20.1865 5.22881 21.8605C5.22881 26.3487 8.90911 30 13.4329 30H31.1204C34.393 30 37.0553 27.3587 37.0553 24.1118C37.0553 21.0734 34.7238 18.5654 31.7427 18.2559ZM31.1204 28.8431H13.4329C9.55218 28.8431 6.39485 25.7106 6.39485 21.8605C6.39485 20.5101 6.78967 19.2523 7.46154 18.1827C7.66868 17.8528 7.90177 17.5418 8.15976 17.2516C9.45038 15.7999 11.3331 14.8779 13.4329 14.8779H13.5661C14.2088 14.8779 14.7967 14.9381 15.3384 15.0428C16.1678 15.2032 16.885 15.4716 17.5022 15.8101C17.8566 16.0046 18.1784 16.2216 18.4705 16.4536C19.9464 17.6258 20.664 19.1785 20.9847 20.1201C21.1407 20.5783 21.2033 20.8922 21.2134 20.9457C21.272 21.2595 21.5757 21.4665 21.892 21.4095C22.2083 21.3519 22.4179 21.0516 22.3603 20.7379C22.3516 20.6902 21.7213 17.4745 18.9964 15.4133C18.69 15.1816 18.3552 14.966 17.9937 14.7696C17.2648 14.3736 16.4225 14.0598 15.4439 13.8829C16.0989 12.7136 17.021 11.7453 18.1076 11.0361C18.4397 10.8193 18.7872 10.6275 19.1477 10.4616C20.1789 9.98692 21.3127 9.72415 22.487 9.72415C26.9508 9.72415 30.5821 13.407 30.5821 17.9339C30.5821 18.1866 30.5707 18.4414 30.5482 18.6916C30.5169 18.8504 30.5541 19.0161 30.6527 19.1475C30.7626 19.2941 30.9362 19.3805 31.1204 19.3805C33.75 19.3805 35.8893 21.5029 35.8893 24.1118C35.8893 26.7206 33.75 28.8431 31.1204 28.8431ZM6.11354 12.7329C6.11354 9.38432 8.85926 6.66002 12.2344 6.66002C14.5949 6.66002 16.6439 7.99484 17.6647 9.94152C16.207 10.8411 14.9952 12.1436 14.2044 13.7386C13.9968 13.7271 13.7839 13.7211 13.5661 13.7211H13.4329C11.0283 13.7211 8.86882 14.7591 7.36691 16.3997C6.58416 15.3794 6.11354 14.1111 6.11354 12.7329Z" fill="white"/>
</svg>
